<?xml version="1.0" encoding="utf-8"?>
<!-- Generator: Adobe Illustrator 23.0.1, SVG Export Plug-In . SVG Version: 6.00 Build 0)  -->
<svg version="1.1" id="Layer_1" xmlns="http://www.w3.org/2000/svg" xmlns:xlink="http://www.w3.org/1999/xlink" x="0px" y="0px"
	 viewBox="0 0 288 288" style="enable-background:new 0 0 288 288;" xml:space="preserve">
<style type="text/css">
	.st0{enable-background:new    ;}
	.st1{fill:#231F20;}
</style>
<title>a</title>
<g class="st0">
	<path class="st1" d="M152.7,111.8c-1.3,0-3.1,0.1-5.3,0.4c-2.2,0.3-4.4,0.7-6.5,1.3c-2.1,0.6-4,1.4-5.6,2.3c-1.6,1-2.3,2.1-2.3,3.4
		c0,0.3,0.2,1,0.7,2.2c0.5,1.2,0.7,2.8,0.7,4.8c0,1.6-0.6,3.1-1.8,4.6c-1.2,1.5-2.9,2.2-5.1,2.2c-1.6,0-3.1-0.6-4.7-1.9
		c-1.6-1.3-2.3-3.4-2.3-6.4c0-3,1.2-5.5,3.7-7.5c2.5-2,5.5-3.6,9-4.9c3.5-1.2,7.2-2.1,11-2.6c3.8-0.5,7.1-0.8,9.8-0.8
		c4.4,0,8.6,0.4,12.6,1.3c4,0.8,7.4,2.3,10.3,4.4c2.9,2.1,5.2,4.9,6.9,8.4c1.7,3.5,2.5,7.9,2.5,13.3v42.7c0,1,0.1,2.2,0.2,3.5
		c0.1,1.3,0.4,2.5,0.8,3.7s1,2.2,1.9,3c0.8,0.8,2,1.3,3.6,1.3s2.9-0.6,3.9-1.7c1-1.1,1.9-2.2,2.5-3.2l1.8,0.8
		c-0.3,0.7-0.8,1.6-1.7,2.8c-0.8,1.2-1.9,2.5-3.3,3.7c-1.4,1.2-3,2.3-4.9,3.3c-1.9,1-4,1.5-6.3,1.5c-3.8,0-7-1.2-9.6-3.7
		c-2.6-2.5-4.2-5.5-4.9-9c-4.6,3.8-9.3,6.8-14.2,9.2c-4.9,2.3-10.5,3.5-16.6,3.5c-2.9,0-5.6-0.4-8.1-1.2c-2.5-0.8-4.8-2-6.7-3.6
		c-1.9-1.6-3.5-3.7-4.7-6.1c-1.2-2.5-1.8-5.4-1.8-8.8c0-4.3,1.2-7.8,3.5-10.6c2.3-2.8,4.7-5,7.2-6.5c3.9-2.6,8.3-4.9,13.3-6.9
		c4.9-2,9.9-4.1,14.8-6.3c1.4-0.6,2.9-1.3,4.5-2c1.6-0.7,3-1.4,4.2-2c1.2-0.6,2.2-1.3,3-1.9c0.8-0.6,1.2-1.2,1.2-1.9v-8.2
		c0-1.3-0.1-3.1-0.3-5.3c-0.2-2.2-0.8-4.4-1.9-6.5c-1-2.1-2.8-4-5.2-5.6C160.3,112.6,157,111.8,152.7,111.8z M170,144.8
		c-3.8,2-7.9,3.9-12.3,5.8c-4.4,1.9-8.3,3.9-11.5,6.1c-3.8,2.6-6.5,5.5-8.3,8.8c-1.8,3.3-2.6,6.6-2.6,9.9c0,2,0.3,3.8,0.8,5.7
		c0.5,1.8,1.3,3.5,2.3,5c1,1.5,2.3,2.7,3.9,3.6c1.6,0.9,3.4,1.4,5.7,1.4c4.5,0,8.8-1,12.7-3c3.9-2,7-4.3,9.4-6.7V144.8z"/>
</g>
</svg>
